M48
; DRILL file {KiCad 8.0.4} date 2024-07-28T18:14:46+0300
; FORMAT={-:-/ absolute / metric / decimal}
; #@! TF.CreationDate,2024-07-28T18:14:46+03:00
; #@! TF.GenerationSoftware,Kicad,Pcbnew,8.0.4
; #@! TF.FileFunction,Plated,1,2,PTH
FMAT,2
METRIC
; #@! TA.AperFunction,Plated,PTH,ViaDrill
T1C0.400
; #@! TA.AperFunction,Plated,PTH,ComponentDrill
T2C0.800
; #@! TA.AperFunction,Plated,PTH,ComponentDrill
T3C0.838
; #@! TA.AperFunction,Plated,PTH,ComponentDrill
T4C1.000
%
G90
G05
T1
X26.652Y-147.0
X27.952Y-145.0
X29.0Y-136.0
X32.0Y-143.0
X33.0Y-150.0
X37.0Y-162.0
X41.0Y-153.0
X48.0Y-170.0
X50.0Y-147.0
X50.3Y-135.0
X51.6Y-137.0
X52.807Y-134.919
X54.0Y-131.0
X57.0Y-136.0
X57.0Y-147.0
X58.0Y-145.0
X61.0Y-162.0
X64.0Y-153.0
X67.0Y-147.0
X68.0Y-119.0
X77.0Y-170.0
X78.54Y-135.046
X80.0Y-129.0
X80.0Y-137.0
X82.0Y-145.0
X82.0Y-154.0
X83.0Y-115.45
X86.06Y-146.889
X86.06Y-134.705
X87.0Y-136.0
X87.0Y-144.0
X89.0Y-146.0
X89.0Y-151.0
X94.0Y-162.0
X97.0Y-152.0
X104.0Y-170.0
X108.0Y-135.0
X109.45Y-138.0
X110.0Y-131.0
X112.35Y-145.599
X114.0Y-136.0
X115.0Y-145.0
X117.0Y-162.0
X120.0Y-146.0
X121.0Y-153.0
X128.0Y-123.0
X132.0Y-154.0
X134.2Y-135.0
X135.65Y-137.0
T2
X29.22Y-132.0
X29.22Y-139.62
X31.76Y-132.0
X31.76Y-139.62
X34.3Y-132.0
X34.3Y-139.62
X36.84Y-132.0
X36.84Y-139.62
X37.0Y-124.5
X37.0Y-127.0
X39.38Y-132.0
X39.38Y-139.62
X39.92Y-150.0
X41.92Y-132.0
X41.92Y-139.62
X43.12Y-119.18
X43.12Y-126.8
X44.46Y-132.0
X44.46Y-139.62
X45.66Y-119.18
X45.66Y-126.8
X47.0Y-132.0
X47.0Y-139.62
X48.2Y-119.18
X48.2Y-126.8
X50.08Y-150.0
X50.74Y-119.18
X50.74Y-126.8
X53.28Y-119.18
X53.28Y-126.8
X55.82Y-119.18
X55.82Y-126.8
X57.46Y-132.1
X57.46Y-139.72
X58.36Y-119.18
X58.36Y-126.8
X60.0Y-132.1
X60.0Y-139.72
X60.9Y-119.18
X60.9Y-126.8
X62.54Y-132.1
X62.54Y-139.72
X63.92Y-150.0
X65.0Y-119.0
X65.0Y-121.5
X65.0Y-125.5
X65.0Y-128.0
X65.08Y-132.1
X65.08Y-139.72
X67.62Y-132.1
X67.62Y-139.72
X70.16Y-132.1
X70.16Y-139.72
X72.7Y-132.1
X72.7Y-139.72
X74.08Y-150.0
X75.24Y-132.1
X75.24Y-139.72
X86.46Y-132.18
X86.46Y-139.8
X89.0Y-132.18
X89.0Y-139.8
X91.54Y-132.18
X91.54Y-139.8
X94.0Y-125.0
X94.0Y-127.5
X94.08Y-132.18
X94.08Y-139.8
X95.84Y-150.0
X96.62Y-132.18
X96.62Y-139.8
X99.16Y-132.18
X99.16Y-139.8
X99.92Y-119.38
X99.92Y-127.0
X101.7Y-132.18
X101.7Y-139.8
X102.46Y-119.38
X102.46Y-127.0
X104.24Y-132.18
X104.24Y-139.8
X105.0Y-119.38
X105.0Y-127.0
X106.0Y-150.0
X107.54Y-119.38
X107.54Y-127.0
X110.08Y-119.38
X110.08Y-127.0
X112.62Y-119.38
X112.62Y-127.0
X113.12Y-132.2
X113.12Y-139.82
X115.16Y-119.38
X115.16Y-127.0
X115.66Y-132.2
X115.66Y-139.82
X117.7Y-119.38
X117.7Y-127.0
X118.2Y-132.2
X118.2Y-139.82
X119.84Y-150.0
X120.74Y-132.2
X120.74Y-139.82
X122.0Y-118.5
X122.0Y-121.0
X122.0Y-125.0
X122.0Y-127.5
X123.28Y-132.2
X123.28Y-139.82
X125.82Y-132.2
X125.82Y-139.82
X128.36Y-132.2
X128.36Y-139.82
X130.0Y-150.0
X130.9Y-132.2
X130.9Y-139.82
T3
X31.375Y-161.256
X31.733Y-164.195
X32.426Y-158.485
X33.415Y-166.633
X34.644Y-156.521
X36.038Y-168.01
X37.519Y-155.813
X39.0Y-168.01
X40.394Y-156.521
X41.624Y-166.633
X42.612Y-158.485
X43.305Y-164.195
X43.663Y-161.256
X54.856Y-161.256
X55.214Y-164.195
X55.907Y-158.485
X56.895Y-166.633
X58.125Y-156.521
X59.519Y-168.01
X61.0Y-155.813
X62.481Y-168.01
X63.875Y-156.521
X65.105Y-166.633
X66.093Y-158.485
X66.786Y-164.195
X67.144Y-161.256
X87.856Y-161.256
X88.214Y-164.195
X88.907Y-158.485
X89.895Y-166.633
X91.125Y-156.521
X92.519Y-168.01
X94.0Y-155.813
X95.481Y-168.01
X96.875Y-156.521
X98.105Y-166.633
X99.093Y-158.485
X99.786Y-164.195
X100.144Y-161.256
X111.356Y-161.256
X111.714Y-164.195
X112.407Y-158.485
X113.395Y-166.633
X114.625Y-156.521
X116.019Y-168.01
X117.5Y-155.813
X118.981Y-168.01
X120.375Y-156.521
X121.605Y-166.633
X122.593Y-158.485
X123.286Y-164.195
X123.644Y-161.256
T4
X75.76Y-120.0
X78.3Y-120.0
X80.84Y-120.0
X82.0Y-125.46
X83.38Y-120.0
X84.54Y-125.46
X85.92Y-120.0
X88.46Y-120.0
X91.0Y-120.0
M30
